# xmcd
#
# Track frame offsets: 
#        150
#        26097
#        46727
#        62482
#        82955
#        102200
#        120322
#        136950
#        153037
#        172587
#        192592
#        207805
#
# Disc length: 3032 seconds
#
# Revision: 5
# Processed by: cddbd v1.5.2PL0 Copyright (c) Steve Scherf et al.
# Submitted via: ExactAudioCopy v1.1
#
DISCID=890bd60c
DTITLE=李心潔 - 愛像大海
DYEAR=2000
DGENRE=Pop
TTITLE0=Crying Like A Baby
TTITLE1=愛像大海
TTITLE2=怎麼了
TTITLE3=愛來愛去
TTITLE4=自問自答
TTITLE5=雷陣雨
TTITLE6=戀
TTITLE7=對不起我不愛你
TTITLE8=決定
TTITLE9=追追追
TTITLE10=幻想
TTITLE11=改變
EXTD=
EXTT0=
EXTT1=
EXTT2=
EXTT3=
EXTT4=
EXTT5=
EXTT6=
EXTT7=
EXTT8=
EXTT9=
EXTT10=
EXTT11=
PLAYORDER=
